#!OML:ASF H:\ManfredETheater\Project 1\Capture day 1\Session 1\subject.ASF
:FULLY-SPECIFIED
:DEGREES
141
root -1.89223 21.3194 15.7334 11.2584 -3.38143 -0.882048
lowerback 10.5721 -0.290667 -1.47692
upperback -1.54819 -0.413994 2.28204
thorax -7.55867 -0.0839987 3.32153
lowerneck -21.089 0.013974 -1.62442
upperneck 16.2789 1.18069 -3.16518
head 8.55994 0.100878 -0.65459
rclavicle -6.16232e-015 -1.03368e-014
rhumerus -58.8081 4.94774 -91.8985
rradius 101.898
rwrist -6.48481
rhand -24.0178 7.1441
rfingers 7.12502
rthumb 2.46017 -22.8215
lclavicle -6.16232e-015 -1.03368e-014
lhumerus -55.9554 -14.1172 100.895
lradius 92.424
lwrist 12.3829
lhand -22.75 -16.9996
lfingers 7.12502
lthumb 3.68457 12.9483
rfemur -20.8256 -3.80527 28.1018
rtibia 43.1037
rfoot -21.8833 -12.591
rtoes -22.3188
lfemur -30.1353 2.18101 -16.6187
ltibia 88.1551
lfoot -5.02281 -2.44473
ltoes -1.9514
142
root -1.92326 21.2501 16.1743 11.5703 -3.55597 -1.35369
lowerback 10.4488 -0.118699 -1.11079
upperback -1.63574 -0.125788 2.40276
thorax -7.60182 0.0451525 3.19327
lowerneck -21.1875 -0.0308404 -1.60678
upperneck 16.461 1.1378 -3.23204
head 8.63959 0.0702848 -0.687053
rclavicle 2.00773e-014 -2.22639e-014
rhumerus -57.1893 5.73475 -92.1942
rradius 102.581
rwrist -5.74027
rhand -24.0897 7.44643
rfingers 7.12502
rthumb 2.39076 -22.5199
lclavicle 2.00773e-014 -2.22639e-014
lhumerus -57.1346 -13.5293 100.379
lradius 91.5726
lwrist 11.9553
lhand -23.1107 -17.2897
lfingers 7.12502
lthumb 3.33623 12.664
rfemur -19.2101 -3.74065 28.5069
rtibia 42.7886
rfoot -22.763 -12.852
rtoes -23.8601
lfemur -32.894 2.89674 -15.9722
ltibia 89.5787
lfoot -6.14725 -2.3398
ltoes -3.15818
143
root -1.95426 21.1861 16.6209 11.8291 -3.72976 -1.79163
lowerback 10.338 0.0595604 -0.769575
upperback -1.71611 0.165334 2.50116
thorax -7.64215 0.175861 3.05537
lowerneck -21.2636 -0.0838094 -1.60556
upperneck 16.6543 1.08274 -3.27096
head 8.7189 0.0360191 -0.709138
rclavicle 4.27387e-015 -1.35174e-014
rhumerus -55.74 6.44676 -92.4823
rradius 103.542
rwrist -5.14068
rhand -24.0589 7.8057
rfingers 7.12502
rthumb 2.42047 -22.1603
lclavicle 4.27387e-015 -1.35174e-014
lhumerus -58.5058 -13.1228 99.9245
lradius 91.1223
lwrist 11.4263
lhand -23.347 -17.5936
lfingers 7.12502
lthumb 3.10796 12.3634
rfemur -17.4346 -3.66295 28.8359
rtibia 42.2982
rfoot -23.4453 -12.9909
rtoes -25.4121
lfemur -35.5567 3.60088 -15.4535
ltibia 90.6202
lfoot -7.12192 -2.30821
ltoes -4.30346
144
root -1.98489 21.1289 17.0741 12.0257 -3.89875 -2.2202
lowerback 10.2503 0.248506 -0.418431
upperback -1.78753 0.470147 2.57942
thorax -7.68413 0.311942 2.88858
lowerneck -21.3221 -0.153935 -1.62065
upperneck 16.8604 1.00211 -3.27666
head 8.79912 -0.00762305 -0.720861
rclavicle -9.93923e-017 -2.5842e-014
rhumerus -54.4857 7.06417 -92.7725
rradius 104.78
rwrist -4.81233
rhand -23.9567 8.13857
rfingers 7.12502
rthumb 2.51919 -21.8263
lclavicle -9.93923e-017 -2.5842e-014
lhumerus -60.05 -12.9216 99.5566
lradius 91.0546
lwrist 10.9257
lhand -23.4415 -17.8536
lfingers 7.12502
lthumb 3.01669 12.1048
rfemur -15.4795 -3.5519 29.117
rtibia 41.6112
rfoot -23.8762 -13.0103
rtoes -27.0841
lfemur -38.0786 4.27617 -15.0343
ltibia 91.2604
lfoot -7.94208 -2.35256
ltoes -5.37191
145
root -2.0151 21.0798 17.5355 12.1952 -4.09402 -2.65558
lowerback 10.1402 0.465157 -0.0443161
upperback -1.85695 0.812747 2.63729
thorax -7.70935 0.464448 2.68106
lowerneck -21.3484 -0.253716 -1.67022
upperneck 17.0674 0.87991 -3.23325
head 8.87326 -0.0671285 -0.715848
rclavicle -7.55382e-015 1.78906e-014
rhumerus -53.4386 7.57877 -93.0636
rradius 106.256
rwrist -4.8478
rhand -23.8135 8.48568
rfingers 7.12502
rthumb 2.65749 -21.4775
lclavicle -7.55382e-015 1.78906e-014
lhumerus -61.7294 -12.938 99.2916
lradius 91.3186
lwrist 10.6035
lhand -23.4041 -18.0519
lfingers 7.12502
lthumb 3.05287 11.906
rfemur -13.3773 -3.37211 29.3646
rtibia 40.712
rfoot -24.0338 -12.8572
rtoes -28.7415
lfemur -40.4523 4.93952 -14.7034
ltibia 91.4866
lfoot -8.62779 -2.45781
ltoes -6.29627
146
root -2.04469 21.0398 18.0057 12.3428 -4.30481 -3.10839
lowerback 10.0106 0.709151 0.369344
upperback -1.92866 1.19464 2.67596
thorax -7.72242 0.633517 2.42507
lowerneck -21.3419 -0.387501 -1.76129
upperneck 17.2755 0.709363 -3.1284
head 8.94142 -0.144689 -0.689588
rclavicle 4.47266e-015 -4.25399e-014
rhumerus -52.5963 8.01384 -93.3594
rradius 107.933
rwrist -5.24147
rhand -23.6893 8.75492
rfingers 7.12502
rthumb 2.77738 -21.2067
lclavicle 4.47266e-015 -4.25399e-014
lhumerus -63.5133 -13.1525 99.1331
lradius 91.8607
lwrist 10.549
lhand -23.2798 -18.1847
lfingers 7.12502
lthumb 3.17285 11.7714
rfemur -11.14 -3.13467 29.5949
rtibia 39.5993
rfoot -23.8819 -12.5195
rtoes -30.3903
lfemur -42.6562 5.56455 -14.4369
ltibia 91.2976
lfoot -9.16299 -2.62743
ltoes -6.95443
147
root -2.07333 21.0087 18.4859 12.4906 -4.51363 -3.57102
lowerback 9.82244 0.975322 0.826485
upperback -2.00702 1.60791 2.69238
thorax -7.70303 0.815119 2.11757
lowerneck -21.3161 -0.556765 -1.88472
upperneck 17.4975 0.488339 -2.97259
head 9.01076 -0.242154 -0.647529
rclavicle -2.51463e-014 1.59028e-014
rhumerus -51.9457 8.39794 -93.6531
rradius 109.758
rwrist -5.93227
rhand -23.6202 8.98857
rfingers 7.12502
rthumb 2.84418 -20.9722
lclavicle -2.51463e-014 1.59028e-014
lhumerus -65.3639 -13.5313 99.0751
lradius 92.6
lwrist 10.7959
lhand -23.0742 -18.2417
lfingers 7.12502
lthumb 3.37144 11.7114
rfemur -8.80192 -2.86399 29.8042
rtibia 38.2843
rfoot -23.4054 -11.9529
rtoes -31.9528
lfemur -44.6867 6.11951 -14.2343
ltibia 90.6998
lfoot -9.59605 -2.8163
ltoes -7.48243
148
root -2.101 20.9856 18.976 12.6507 -4.69853 -4.03248
lowerback 9.56415 1.25563 1.31665
upperback -2.09704 2.03932 2.68772
thorax -7.64781 1.00363 1.7697
lowerneck -21.2646 -0.76199 -2.04767
upperneck 17.7282 0.216431 -2.76073
head 9.07894 -0.359434 -0.586707
rclavicle 2.38542e-015 -1.98785e-015
rhumerus -51.4624 8.76427 -93.9314
rradius 111.668
rwrist -6.79307
rhand -23.6253 9.19347
rfingers 7.12502
rthumb 2.83921 -20.7674
lclavicle 2.38542e-015 -1.98785e-015
lhumerus -67.2551 -14.0142 99.099
lradius 93.4796
lwrist 11.3031
lhand -22.866 -18.2953
lfingers 7.12502
lthumb 3.57246 11.6545
rfemur -6.40159 -2.58956 29.9873
rtibia 36.791
rfoot -22.5924 -11.1428
rtoes -33.3743
lfemur -46.5483 6.57464 -14.0944
ltibia 89.7101
lfoot -9.93273 -3.00168
ltoes -7.88997
149
root -2.1277 20.969 19.4766 12.8183 -4.82824 -4.48331
lowerback 9.22566 1.53535 1.83182
upperback -2.19436 2.46656 2.66481
thorax -7.54476 1.18907 1.39466
lowerneck -21.1987 -0.990131 -2.23262
upperneck 17.9776 -0.0895501 -2.51175
head 9.15224 -0.489845 -0.514251
rclavicle -3.34952e-014 -2.22639e-014
rhumerus -51.116 9.14394 -94.1842
rradius 113.602
rwrist -7.70037
rhand -23.6913 9.4024
rfingers 7.12502
rthumb 2.77545 -20.5593
lclavicle -3.34952e-014 -2.22639e-014
lhumerus -69.157 -14.541 99.177
lradius 94.4292
lwrist 11.9665
lhand -22.6484 -18.3225
lfingers 7.12502
lthumb 3.78261 11.6236
rfemur -3.9511 -2.35319 30.1382
rtibia 35.1374
rfoot -21.4434 -10.0797
rtoes -34.6085
lfemur -48.2266 6.89343 -14.0062
ltibia 88.3492
lfoot -10.1688 -3.17129
ltoes -8.20074
150
root -2.15414 20.9578 19.9862 12.993 -4.88057 -4.8989
lowerback 8.82639 1.80421 2.33291
upperback -2.31133 2.87135 2.62599
thorax -7.41949 1.36457 1.02079
lowerneck -21.1064 -1.23261 -2.43748
upperneck 18.2515 -0.419206 -2.22612
head 9.23109 -0.628403 -0.42914
rclavicle 3.00165e-014 2.66371e-014
rhumerus -50.8998 9.54991 -94.3946
rradius 115.507
rwrist -8.51559
rhand -23.7919 9.64002
rfingers 7.12502
rthumb 2.67836 -20.3229
lclavicle 3.00165e-014 2.66371e-014
lhumerus -71.068 -15.0537 99.285
lradius 95.402
lwrist 12.6702
lhand -22.4609 -18.3611
lfingers 7.12502
lthumb 3.96371 11.5818
rfemur -1.48261 -2.17213 30.2413
rtibia 33.344
rfoot -19.9431 -8.77941
rtoes -35.5509
lfemur -49.7336 7.05382 -13.9756
ltibia 86.6393
lfoot -10.2828 -3.32328
ltoes -8.48105
151
root -2.17999 20.9501 20.5057 13.1631 -4.82444 -5.2865
lowerback 8.35761 2.04523 2.83213
upperback -2.43965 3.23142 2.57914
thorax -7.25863 1.51924 0.653994
lowerneck -21.0058 -1.47771 -2.63652
upperneck 18.5587 -0.757554 -1.93293
head 9.3221 -0.769834 -0.343697
rclavicle 1.78906e-015 -3.97569e-016
rhumerus -50.7899 9.99613 -94.5586
rradius 117.338
rwrist -9.15094
rhand -23.8682 9.89803
rfingers 7.12502
rthumb 2.60462 -20.0658
lclavicle 1.78906e-015 -3.97569e-016
lhumerus -72.9708 -15.5057 99.3962
lradius 96.3603
lwrist 13.2966
lhand -22.3049 -18.4014
lfingers 7.12502
lthumb 4.11431 11.5386
rfemur 1.01229 -2.08888 30.3034
rtibia 31.4089
rfoot -18.0685 -7.28472
rtoes -36.2002
lfemur -51.0511 7.0363 -13.9741
ltibia 84.6056
lfoot -10.2567 -3.46347
ltoes -8.76255
152
root -2.20611 20.9442 21.0331 13.31 -4.67347 -5.63046
lowerback 7.85783 2.25819 3.28495
upperback -2.57874 3.54315 2.52928
thorax -7.08801 1.65317 0.323536
lowerneck -20.8969 -1.71604 -2.82957
upperneck 18.9037 -1.09168 -1.63396
head 9.42695 -0.908267 -0.256772
rclavicle -2.25621e-014 -7.55382e-015
rhumerus -50.776 10.4837 -94.6721
rradius 119.062
rwrist -9.54331
rhand -23.9046 10.1764
rfingers 7.12502
rthumb 2.5695 -19.7878
lclavicle -2.25621e-014 -7.55382e-015
lhumerus -74.8538 -15.8664 99.4948
lradius 97.2768
lwrist 13.7699
lhand -22.1855 -18.4306
lfingers 7.12502
lthumb 4.22965 11.5072
rfemur 3.5388 -2.08235 30.3145
rtibia 29.3236
rfoot -15.7443 -5.68694
rtoes -36.4631
lfemur -52.1705 6.86405 -14.003
ltibia 82.271
lfoot -10.0372 -3.61001
ltoes -9.10659
153
root -2.23227 20.9379 21.5679 13.4196 -4.43954 -5.93593
lowerback 7.34335 2.44151 3.69087
upperback -2.72736 3.8058 2.47999
thorax -6.91795 1.76579 0.0319503
lowerneck -20.7788 -1.94153 -3.01073
upperneck 19.2912 -1.41374 -1.33656
head 9.5471 -1.04043 -0.170775
rclavicle 3.39922e-014 2.74323e-014
rhumerus -50.8584 11.0073 -94.7401
rradius 120.656
rwrist -9.6734
rhand -23.8794 10.4714
rfingers 7.12502
rthumb 2.59386 -19.4926
lclavicle 3.39922e-014 2.74323e-014
lhumerus -76.7159 -16.1218 99.5685
lradius 98.1473
lwrist 14.0826
lhand -22.1133 -18.4725
lfingers 7.12502
lthumb 4.29934 11.4638
rfemur 6.11482 -2.15239 30.2741
rtibia 27.0653
rfoot -12.9077 -4.06325
rtoes -36.2622
lfemur -53.0757 6.55924 -14.045
ltibia 79.6633
lfoot -9.59167 -3.78904
ltoes -9.4443
154
root -2.25819 20.9288 22.1087 13.4716 -4.13322 -6.19665
lowerback 6.84476 2.59318 4.04224
upperback -2.87637 4.01789 2.43083
thorax -6.75858 1.85629 -0.219373
lowerneck -20.6795 -2.15136 -3.17281
upperneck 19.7295 -1.71911 -1.0493
head 9.69037 -1.16465 -0.0895189
rclavicle 2.73329e-014 1.59028e-014
rhumerus -51.0099 11.5609 -94.7656
rradius 122.109
rwrist -9.53687
rhand -23.7961 10.7356
rfingers 7.12502
rthumb 2.67426 -19.2274
lclavicle 2.73329e-014 1.59028e-014
lhumerus -78.5382 -16.2763 99.6053
lradius 98.9746
lwrist 14.2651
lhand -22.0738 -18.5129
lfingers 7.12502
lthumb 4.33748 11.4226
rfemur 8.75869 -2.28407 30.1766
rtibia 24.6196
rfoot -9.49505 -2.53302
rtoes -35.6607
lfemur -53.7565 6.14099 -14.0982
ltibia 76.8079
lfoot -8.87957 -4.03134
ltoes -9.76387
